<svg xmlns="http://www.w3.org/2000/svg" xmlns:xlink="http://www.w3.org/1999/xlink" width="500" zoomAndPan="magnify" viewBox="0 0 375 374.999991" height="500" preserveAspectRatio="xMidYMid meet" version="1.0"><defs><g/></defs><g fill="#ffd03c" fill-opacity="1"><g transform="translate(16.732915, 157.882451)"><g><path d="M -1.5 -1.125 L 4.484375 -3.359375 L 25.015625 -53 L 27.25 -53 L 48.53125 -2.234375 L 52.265625 -1.125 L 52.265625 0 L 43.296875 0 C 40.710938 0 38.597656 -0.582031 36.953125 -1.75 C 35.304688 -2.925781 34.085938 -4.457031 33.296875 -6.34375 L 29.484375 -15.296875 L 11.640625 -15.296875 L 6.71875 -3.359375 L 12.3125 -1.125 L 12.3125 0 L -1.5 0 Z M 12.390625 -17.171875 L 28.75 -17.171875 L 20.53125 -36.8125 Z M 12.390625 -17.171875 "/></g></g></g><g fill="#ffd03c" fill-opacity="1"><g transform="translate(67.491464, 157.882451)"><g><path d="M 2.984375 -1.125 L 7.46875 -2.234375 L 7.46875 -35.09375 L 2.984375 -36.203125 L 2.984375 -37.328125 L 9.703125 -37.328125 C 12.640625 -37.328125 14.953125 -36.378906 16.640625 -34.484375 C 17.296875 -33.742188 17.847656 -32.828125 18.296875 -31.734375 C 18.992188 -33.023438 19.8125 -34.144531 20.75 -35.09375 C 22.988281 -37.332031 25.773438 -38.453125 29.109375 -38.453125 C 31.898438 -38.453125 34.398438 -37.863281 36.609375 -36.6875 C 38.828125 -35.519531 40.554688 -33.988281 41.796875 -32.09375 C 43.046875 -30.207031 43.671875 -28.21875 43.671875 -26.125 L 43.671875 -2.234375 L 48.15625 -1.125 L 48.15625 0 L 38.453125 0 C 33.972656 0 31.734375 -2.238281 31.734375 -6.71875 L 31.734375 -26.125 C 31.734375 -29.257812 31.171875 -31.660156 30.046875 -33.328125 C 28.929688 -34.992188 27.625 -35.828125 26.125 -35.828125 C 24.238281 -35.828125 22.546875 -34.832031 21.046875 -32.84375 C 20.398438 -32 19.851562 -31.003906 19.40625 -29.859375 L 19.40625 -2.234375 L 23.890625 -1.125 L 23.890625 0 L 2.984375 0 Z M 2.984375 -1.125 "/></g></g></g><g fill="#ffd03c" fill-opacity="1"><g transform="translate(117.130336, 157.882451)"><g><path d="M 11.203125 16.046875 C 8.960938 16.046875 7.21875 15.445312 5.96875 14.25 C 4.726562 13.0625 4.109375 11.421875 4.109375 9.328125 C 4.109375 7.441406 4.617188 5.972656 5.640625 4.921875 C 6.660156 3.878906 8.015625 3.359375 9.703125 3.359375 C 10.097656 3.359375 10.492188 3.394531 10.890625 3.46875 C 11.296875 3.539062 11.570312 3.578125 11.71875 3.578125 L 12.6875 3.734375 L 12.6875 13.8125 C 14.132812 13.5625 15.40625 12.765625 16.5 11.421875 C 17.59375 10.078125 18.8125 7.765625 20.15625 4.484375 L 21.65625 0.75 L 2.234375 -35.09375 L -1.5 -36.203125 L -1.5 -37.328125 L 7.84375 -37.328125 C 10.425781 -37.328125 12.476562 -36.789062 14 -35.71875 C 15.519531 -34.65625 16.828125 -33.078125 17.921875 -30.984375 L 27.25 -13.734375 L 35.09375 -33.96875 L 29.484375 -36.203125 L 29.484375 -37.328125 L 43.296875 -37.328125 L 43.296875 -36.203125 L 37.328125 -33.96875 L 22.390625 4.484375 C 20.804688 8.554688 19.113281 11.5 17.3125 13.3125 C 15.519531 15.132812 13.484375 16.046875 11.203125 16.046875 Z M 11.203125 16.046875 "/></g></g></g><g fill="#ffd03c" fill-opacity="1"><g transform="translate(158.931493, 157.882451)"><g><path d="M 22.390625 1.125 C 19.109375 1.125 16.257812 0.523438 13.84375 -0.671875 C 11.4375 -1.867188 9.582031 -3.507812 8.28125 -5.59375 C 6.988281 -7.6875 6.34375 -10.050781 6.34375 -12.6875 L 6.34375 -35.46875 L 1.125 -35.46875 L 1.125 -37.328125 L 6.34375 -37.328125 L 6.34375 -41.0625 C 6.34375 -45.539062 8.582031 -47.78125 13.0625 -47.78125 L 18.296875 -47.78125 L 18.296875 -37.328125 L 28.75 -37.328125 L 28.75 -35.46875 L 18.296875 -35.46875 L 18.296875 -12.6875 C 18.296875 -8.113281 18.765625 -4.976562 19.703125 -3.28125 C 20.648438 -1.59375 22.046875 -0.75 23.890625 -0.75 C 25.679688 -0.75 27.25 -1.617188 28.59375 -3.359375 C 29.9375 -5.097656 30.609375 -7.460938 30.609375 -10.453125 L 32.46875 -10.453125 C 32.46875 -6.765625 31.546875 -3.910156 29.703125 -1.890625 C 27.867188 0.117188 25.429688 1.125 22.390625 1.125 Z M 22.390625 1.125 "/></g></g></g><g fill="#ffd03c" fill-opacity="1"><g transform="translate(192.521708, 157.882451)"><g><path d="M 2.984375 -1.125 L 7.46875 -2.234375 L 7.46875 -50.015625 L 2.984375 -51.140625 L 2.984375 -52.265625 L 12.6875 -52.265625 C 17.164062 -52.265625 19.40625 -50.023438 19.40625 -45.546875 L 19.40625 -33.59375 C 20.15625 -34.59375 20.925781 -35.390625 21.71875 -35.984375 C 23.863281 -37.628906 26.328125 -38.453125 29.109375 -38.453125 C 31.898438 -38.453125 34.398438 -37.863281 36.609375 -36.6875 C 38.828125 -35.519531 40.554688 -33.988281 41.796875 -32.09375 C 43.046875 -30.207031 43.671875 -28.21875 43.671875 -26.125 L 43.671875 -2.234375 L 48.15625 -1.125 L 48.15625 0 L 38.453125 0 C 33.972656 0 31.734375 -2.238281 31.734375 -6.71875 L 31.734375 -26.125 C 31.734375 -29.257812 31.171875 -31.660156 30.046875 -33.328125 C 28.929688 -34.992188 27.625 -35.828125 26.125 -35.828125 C 24.238281 -35.828125 22.546875 -34.832031 21.046875 -32.84375 C 20.398438 -32 19.851562 -31.003906 19.40625 -29.859375 L 19.40625 -2.234375 L 23.890625 -1.125 L 23.890625 0 L 2.984375 0 Z M 2.984375 -1.125 "/></g></g></g><g fill="#ffd03c" fill-opacity="1"><g transform="translate(242.16058, 157.882451)"><g><path d="M 2.984375 -1.125 L 7.46875 -2.234375 L 7.46875 -35.09375 L 2.984375 -36.203125 L 2.984375 -37.328125 L 12.6875 -37.328125 C 17.164062 -37.328125 19.40625 -35.085938 19.40625 -30.609375 L 19.40625 -2.234375 L 23.890625 -1.125 L 23.890625 0 L 2.984375 0 Z M 12.6875 -41.8125 C 11.195312 -41.8125 9.953125 -42.304688 8.953125 -43.296875 C 7.960938 -44.296875 7.46875 -45.539062 7.46875 -47.03125 C 7.46875 -48.519531 7.960938 -49.765625 8.953125 -50.765625 C 9.953125 -51.765625 11.195312 -52.265625 12.6875 -52.265625 C 14.175781 -52.265625 15.414062 -51.765625 16.40625 -50.765625 C 17.40625 -49.765625 17.90625 -48.519531 17.90625 -47.03125 C 17.90625 -45.539062 17.40625 -44.296875 16.40625 -43.296875 C 15.414062 -42.304688 14.175781 -41.8125 12.6875 -41.8125 Z M 12.6875 -41.8125 "/></g></g></g><g fill="#ffd03c" fill-opacity="1"><g transform="translate(267.539855, 157.882451)"><g><path d="M 2.984375 -1.125 L 7.46875 -2.234375 L 7.46875 -35.09375 L 2.984375 -36.203125 L 2.984375 -37.328125 L 9.703125 -37.328125 C 12.640625 -37.328125 14.953125 -36.378906 16.640625 -34.484375 C 17.296875 -33.742188 17.847656 -32.828125 18.296875 -31.734375 C 18.992188 -33.023438 19.8125 -34.144531 20.75 -35.09375 C 22.988281 -37.332031 25.773438 -38.453125 29.109375 -38.453125 C 31.898438 -38.453125 34.398438 -37.863281 36.609375 -36.6875 C 38.828125 -35.519531 40.554688 -33.988281 41.796875 -32.09375 C 43.046875 -30.207031 43.671875 -28.21875 43.671875 -26.125 L 43.671875 -2.234375 L 48.15625 -1.125 L 48.15625 0 L 38.453125 0 C 33.972656 0 31.734375 -2.238281 31.734375 -6.71875 L 31.734375 -26.125 C 31.734375 -29.257812 31.171875 -31.660156 30.046875 -33.328125 C 28.929688 -34.992188 27.625 -35.828125 26.125 -35.828125 C 24.238281 -35.828125 22.546875 -34.832031 21.046875 -32.84375 C 20.398438 -32 19.851562 -31.003906 19.40625 -29.859375 L 19.40625 -2.234375 L 23.890625 -1.125 L 23.890625 0 L 2.984375 0 Z M 2.984375 -1.125 "/></g></g></g><g fill="#ffd03c" fill-opacity="1"><g transform="translate(317.178727, 157.882451)"><g><path d="M 20.53125 16.046875 C 16.101562 16.046875 12.492188 15.644531 9.703125 14.84375 C 6.921875 14.050781 4.914062 13.03125 3.6875 11.78125 C 2.46875 10.539062 1.859375 9.226562 1.859375 7.84375 C 1.859375 6.144531 2.367188 4.785156 3.390625 3.765625 C 4.410156 2.742188 5.769531 2.234375 7.46875 2.234375 C 7.863281 2.234375 8.582031 2.3125 9.625 2.46875 L 10.453125 2.609375 L 10.453125 13.0625 C 11.046875 13.257812 11.988281 13.507812 13.28125 13.8125 C 15.570312 14.3125 17.738281 14.5625 19.78125 14.5625 C 25.851562 14.5625 30.296875 13.703125 33.109375 11.984375 C 35.921875 10.265625 37.328125 8.132812 37.328125 5.59375 C 37.328125 2.363281 34.34375 0.75 28.375 0.75 L 14.1875 0.75 C 10.445312 0.75 7.582031 -0.0195312 5.59375 -1.5625 C 3.601562 -3.101562 2.609375 -5.070312 2.609375 -7.46875 C 2.609375 -9.851562 3.78125 -11.96875 6.125 -13.8125 C 7.070312 -14.507812 8.265625 -15.128906 9.703125 -15.671875 C 7.859375 -16.816406 6.523438 -18.171875 5.703125 -19.734375 C 4.890625 -21.304688 4.484375 -23.191406 4.484375 -25.390625 C 4.484375 -29.066406 5.875 -32.035156 8.65625 -34.296875 C 11.445312 -36.566406 15.53125 -37.703125 20.90625 -37.703125 C 23.238281 -37.703125 25.390625 -37.460938 27.359375 -36.984375 C 29.328125 -36.515625 30.910156 -35.882812 32.109375 -35.09375 C 32.503906 -35.9375 33.023438 -36.679688 33.671875 -37.328125 C 35.160156 -38.816406 37 -39.5625 39.1875 -39.5625 C 40.882812 -39.5625 42.304688 -38.976562 43.453125 -37.8125 C 44.597656 -36.644531 45.171875 -35.113281 45.171875 -33.21875 C 45.171875 -31.78125 44.785156 -30.613281 44.015625 -29.71875 C 43.242188 -28.820312 42.257812 -28.375 41.0625 -28.375 C 40.507812 -28.375 39.882812 -28.421875 39.1875 -28.515625 L 38.453125 -28.75 L 38.453125 -37.703125 C 37.148438 -37.703125 35.929688 -37.078125 34.796875 -35.828125 C 34.347656 -35.378906 33.945312 -34.757812 33.59375 -33.96875 C 36.082031 -31.78125 37.328125 -28.921875 37.328125 -25.390625 C 37.328125 -21.703125 35.929688 -18.722656 33.140625 -16.453125 C 30.359375 -14.191406 26.28125 -13.0625 20.90625 -13.0625 C 17.320312 -13.0625 14.085938 -13.6875 11.203125 -14.9375 L 9.703125 -14.1875 C 9.203125 -13.882812 8.828125 -13.597656 8.578125 -13.328125 C 8.335938 -13.054688 8.21875 -12.71875 8.21875 -12.3125 C 8.21875 -11.46875 8.648438 -10.820312 9.515625 -10.375 C 10.390625 -9.925781 11.945312 -9.703125 14.1875 -9.703125 L 28.375 -9.703125 C 32.101562 -9.703125 35.023438 -8.617188 37.140625 -6.453125 C 39.253906 -4.285156 40.3125 -1.265625 40.3125 2.609375 C 40.3125 6.585938 38.65625 9.820312 35.34375 12.3125 C 32.039062 14.800781 27.101562 16.046875 20.53125 16.046875 Z M 20.90625 -14.5625 C 22.550781 -14.5625 23.832031 -15.359375 24.75 -16.953125 C 25.664062 -18.546875 26.125 -21.359375 26.125 -25.390625 C 26.125 -29.421875 25.664062 -32.226562 24.75 -33.8125 C 23.832031 -35.40625 22.550781 -36.203125 20.90625 -36.203125 C 19.257812 -36.203125 17.972656 -35.40625 17.046875 -33.8125 C 16.128906 -32.226562 15.671875 -29.421875 15.671875 -25.390625 C 15.671875 -21.359375 16.128906 -18.546875 17.046875 -16.953125 C 17.972656 -15.359375 19.257812 -14.5625 20.90625 -14.5625 Z M 20.90625 -14.5625 "/></g></g></g><g fill="#ffd03c" fill-opacity="1"><g transform="translate(167.939422, 225.69172)"><g><path d="M 10.453125 -39.5625 L 10.453125 -3.359375 L 16.421875 -1.125 L 16.421875 0 L 2.234375 0 L 2.234375 -1.125 L 8.21875 -3.359375 L 8.21875 -49.640625 L 2.984375 -51.140625 L 2.984375 -52.265625 L 10.828125 -52.265625 C 13.460938 -52.265625 15.523438 -51.789062 17.015625 -50.84375 C 18.515625 -49.894531 19.9375 -48.625 21.28125 -47.03125 L 45.171875 -19.03125 L 45.171875 -48.90625 L 39.1875 -51.140625 L 39.1875 -52.265625 L 53.375 -52.265625 L 53.375 -51.140625 L 47.40625 -48.90625 L 47.40625 1.125 L 45.171875 1.125 Z M 10.453125 -39.5625 "/></g></g></g><g fill="#ffd03c" fill-opacity="1"><g transform="translate(223.176659, 225.69172)"><g><path d="M 23.140625 1.125 C 16.773438 1.125 11.820312 -0.628906 8.28125 -4.140625 C 4.75 -7.648438 2.984375 -12.488281 2.984375 -18.65625 C 2.984375 -22.695312 3.753906 -26.207031 5.296875 -29.1875 C 6.835938 -32.175781 8.988281 -34.46875 11.75 -36.0625 C 14.519531 -37.65625 17.695312 -38.453125 21.28125 -38.453125 C 24.863281 -38.453125 28.007812 -37.78125 30.71875 -36.4375 C 33.4375 -35.09375 35.523438 -33.285156 36.984375 -31.015625 C 38.453125 -28.753906 39.1875 -26.253906 39.1875 -23.515625 C 39.1875 -22.273438 39.066406 -21.207031 38.828125 -20.3125 L 38.453125 -19.03125 C 36.304688 -18.582031 33.988281 -18.210938 31.5 -17.921875 C 26.28125 -17.171875 21.003906 -16.796875 15.671875 -16.796875 C 15.671875 -11.023438 16.46875 -6.90625 18.0625 -4.4375 C 19.65625 -1.976562 21.847656 -0.75 24.640625 -0.75 C 26.578125 -0.75 28.378906 -1.207031 30.046875 -2.125 C 31.710938 -3.050781 33.03125 -4.269531 34 -5.78125 C 34.976562 -7.300781 35.46875 -8.859375 35.46875 -10.453125 L 37.328125 -10.453125 C 37.328125 -8.460938 36.726562 -6.570312 35.53125 -4.78125 C 34.34375 -2.988281 32.675781 -1.554688 30.53125 -0.484375 C 28.394531 0.585938 25.929688 1.125 23.140625 1.125 Z M 15.671875 -18.65625 C 18.859375 -18.65625 21.445312 -18.78125 23.4375 -19.03125 C 24.289062 -19.082031 25.1875 -19.207031 26.125 -19.40625 C 26.175781 -19.65625 26.300781 -20.203125 26.5 -21.046875 C 26.75 -22.296875 26.875 -23.617188 26.875 -25.015625 C 26.875 -29.140625 26.328125 -32.160156 25.234375 -34.078125 C 24.140625 -35.992188 22.820312 -36.953125 21.28125 -36.953125 C 17.539062 -36.953125 15.671875 -30.851562 15.671875 -18.65625 Z M 15.671875 -18.65625 "/></g></g></g><g fill="#ffd03c" fill-opacity="1"><g transform="translate(264.977815, 225.69172)"><g><path d="M 23.140625 1.125 C 16.773438 1.125 11.820312 -0.628906 8.28125 -4.140625 C 4.75 -7.648438 2.984375 -12.488281 2.984375 -18.65625 C 2.984375 -22.695312 3.753906 -26.207031 5.296875 -29.1875 C 6.835938 -32.175781 8.988281 -34.46875 11.75 -36.0625 C 14.519531 -37.65625 17.695312 -38.453125 21.28125 -38.453125 C 24.863281 -38.453125 28.007812 -37.78125 30.71875 -36.4375 C 33.4375 -35.09375 35.523438 -33.285156 36.984375 -31.015625 C 38.453125 -28.753906 39.1875 -26.253906 39.1875 -23.515625 C 39.1875 -22.273438 39.066406 -21.207031 38.828125 -20.3125 L 38.453125 -19.03125 C 36.304688 -18.582031 33.988281 -18.210938 31.5 -17.921875 C 26.28125 -17.171875 21.003906 -16.796875 15.671875 -16.796875 C 15.671875 -11.023438 16.46875 -6.90625 18.0625 -4.4375 C 19.65625 -1.976562 21.847656 -0.75 24.640625 -0.75 C 26.578125 -0.75 28.378906 -1.207031 30.046875 -2.125 C 31.710938 -3.050781 33.03125 -4.269531 34 -5.78125 C 34.976562 -7.300781 35.46875 -8.859375 35.46875 -10.453125 L 37.328125 -10.453125 C 37.328125 -8.460938 36.726562 -6.570312 35.53125 -4.78125 C 34.34375 -2.988281 32.675781 -1.554688 30.53125 -0.484375 C 28.394531 0.585938 25.929688 1.125 23.140625 1.125 Z M 15.671875 -18.65625 C 18.859375 -18.65625 21.445312 -18.78125 23.4375 -19.03125 C 24.289062 -19.082031 25.1875 -19.207031 26.125 -19.40625 C 26.175781 -19.65625 26.300781 -20.203125 26.5 -21.046875 C 26.75 -22.296875 26.875 -23.617188 26.875 -25.015625 C 26.875 -29.140625 26.328125 -32.160156 25.234375 -34.078125 C 24.140625 -35.992188 22.820312 -36.953125 21.28125 -36.953125 C 17.539062 -36.953125 15.671875 -30.851562 15.671875 -18.65625 Z M 15.671875 -18.65625 "/></g></g></g><g fill="#ffd03c" fill-opacity="1"><g transform="translate(306.778971, 225.69172)"><g><path d="M 18.296875 1.125 C 15.359375 1.125 12.742188 0.363281 10.453125 -1.15625 C 8.160156 -2.675781 6.34375 -4.914062 5 -7.875 C 3.65625 -10.832031 2.984375 -14.425781 2.984375 -18.65625 C 2.984375 -25.03125 4.460938 -29.921875 7.421875 -33.328125 C 10.390625 -36.742188 14.382812 -38.453125 19.40625 -38.453125 C 21.800781 -38.453125 23.894531 -37.953125 25.6875 -36.953125 C 26.425781 -36.609375 27.195312 -36.113281 28 -35.46875 L 28 -50.015625 L 23.515625 -51.140625 L 23.515625 -52.265625 L 33.21875 -52.265625 C 37.695312 -52.265625 39.9375 -50.023438 39.9375 -45.546875 L 39.9375 -2.234375 L 44.421875 -1.125 L 44.421875 0 L 37.703125 0 C 34.710938 0 32.398438 -0.921875 30.765625 -2.765625 C 30.066406 -3.503906 29.515625 -4.445312 29.109375 -5.59375 C 28.460938 -4.351562 27.644531 -3.234375 26.65625 -2.234375 C 24.414062 0.00390625 21.628906 1.125 18.296875 1.125 Z M 21.28125 -1.5 C 23.125 -1.5 24.789062 -2.492188 26.28125 -4.484375 C 26.820312 -5.222656 27.394531 -6.21875 28 -7.46875 L 28 -33.21875 C 27.445312 -33.769531 26.875 -34.269531 26.28125 -34.71875 C 24.9375 -35.707031 23.640625 -36.203125 22.390625 -36.203125 C 20.253906 -36.203125 18.597656 -34.957031 17.421875 -32.46875 C 16.253906 -29.988281 15.671875 -25.382812 15.671875 -18.65625 C 15.671875 -12.238281 16.207031 -7.773438 17.28125 -5.265625 C 18.351562 -2.753906 19.6875 -1.5 21.28125 -1.5 Z M 21.28125 -1.5 "/></g></g></g><g fill="#ffd03c" fill-opacity="1"><g transform="translate(16.732915, 225.69172)"><g><path d="M 14.5625 -1.125 L 19.03125 -2.234375 L 19.03125 -19.40625 L 3.734375 -50.015625 L 0 -51.140625 L 0 -52.265625 L 9.328125 -52.265625 C 11.921875 -52.265625 14 -51.710938 15.5625 -50.609375 C 17.132812 -49.515625 18.414062 -47.945312 19.40625 -45.90625 L 30.453125 -23.890625 L 41.8125 -48.90625 L 36.203125 -51.140625 L 36.203125 -52.265625 L 50.390625 -52.265625 L 50.390625 -51.140625 L 44.421875 -48.90625 L 31.359375 -20.15625 L 31.359375 -2.234375 L 35.828125 -1.125 L 35.828125 0 L 14.5625 0 Z M 14.5625 -1.125 "/></g></g></g><g fill="#ffd03c" fill-opacity="1"><g transform="translate(66.371788, 225.69172)"><g><path d="M 22.765625 1.125 C 16.597656 1.125 11.757812 -0.628906 8.25 -4.140625 C 4.738281 -7.648438 2.984375 -12.488281 2.984375 -18.65625 C 2.984375 -24.832031 4.738281 -29.675781 8.25 -33.1875 C 11.757812 -36.695312 16.597656 -38.453125 22.765625 -38.453125 C 28.941406 -38.453125 33.78125 -36.695312 37.28125 -33.1875 C 40.789062 -29.675781 42.546875 -24.832031 42.546875 -18.65625 C 42.546875 -12.488281 40.789062 -7.648438 37.28125 -4.140625 C 33.78125 -0.628906 28.941406 1.125 22.765625 1.125 Z M 22.765625 -0.375 C 24.753906 -0.375 26.429688 -1.765625 27.796875 -4.546875 C 29.171875 -7.335938 29.859375 -12.039062 29.859375 -18.65625 C 29.859375 -25.28125 29.171875 -29.984375 27.796875 -32.765625 C 26.429688 -35.554688 24.753906 -36.953125 22.765625 -36.953125 C 20.773438 -36.953125 19.09375 -35.554688 17.71875 -32.765625 C 16.351562 -29.984375 15.671875 -25.28125 15.671875 -18.65625 C 15.671875 -12.039062 16.351562 -7.335938 17.71875 -4.546875 C 19.09375 -1.765625 20.773438 -0.375 22.765625 -0.375 Z M 22.765625 -0.375 "/></g></g></g><g fill="#ffd03c" fill-opacity="1"><g transform="translate(111.905182, 225.69172)"><g><path d="M 20.90625 1.125 C 18.113281 1.125 15.609375 0.539062 13.390625 -0.625 C 11.179688 -1.800781 9.453125 -3.332031 8.203125 -5.21875 C 6.960938 -7.113281 6.34375 -9.109375 6.34375 -11.203125 L 6.34375 -35.09375 L 1.859375 -36.203125 L 1.859375 -37.328125 L 11.578125 -37.328125 C 16.054688 -37.328125 18.296875 -35.085938 18.296875 -30.609375 L 18.296875 -11.203125 C 18.296875 -8.066406 18.851562 -5.664062 19.96875 -4 C 21.09375 -2.332031 22.398438 -1.5 23.890625 -1.5 C 25.734375 -1.5 27.398438 -2.492188 28.890625 -4.484375 C 29.441406 -5.222656 30.015625 -6.21875 30.609375 -7.46875 L 30.609375 -35.09375 L 26.125 -36.203125 L 26.125 -37.328125 L 47.03125 -37.328125 L 47.03125 -36.203125 L 42.546875 -35.09375 L 42.546875 0.375 L 41.8125 0.375 C 38.175781 0.375 35.410156 -0.617188 33.515625 -2.609375 C 32.671875 -3.503906 32.078125 -4.5 31.734375 -5.59375 C 31.035156 -4.351562 30.210938 -3.234375 29.265625 -2.234375 C 27.023438 0.00390625 24.238281 1.125 20.90625 1.125 Z M 20.90625 1.125 "/></g></g></g><g fill="#ffd03c" fill-opacity="1"><g transform="translate(29.213153, 260.108352)"><g><path d="M 10.578125 -6.53125 C 11.265625 -6.300781 11.8125 -5.921875 12.21875 -5.390625 C 12.625 -4.859375 12.828125 -4.195312 12.828125 -3.40625 C 12.828125 -2.320312 12.410156 -1.484375 11.578125 -0.890625 C 10.742188 -0.296875 9.523438 0 7.921875 0 L 1.6875 0 L 1.6875 -12.546875 L 7.5625 -12.546875 C 9.039062 -12.546875 10.179688 -12.253906 10.984375 -11.671875 C 11.785156 -11.097656 12.1875 -10.300781 12.1875 -9.28125 C 12.1875 -8.664062 12.039062 -8.117188 11.75 -7.640625 C 11.46875 -7.160156 11.078125 -6.789062 10.578125 -6.53125 Z M 4.015625 -10.71875 L 4.015625 -7.265625 L 7.3125 -7.265625 C 8.125 -7.265625 8.75 -7.410156 9.1875 -7.703125 C 9.625 -7.992188 9.84375 -8.421875 9.84375 -8.984375 C 9.84375 -9.554688 9.625 -9.988281 9.1875 -10.28125 C 8.75 -10.570312 8.125 -10.71875 7.3125 -10.71875 Z M 7.78125 -1.828125 C 9.582031 -1.828125 10.484375 -2.429688 10.484375 -3.640625 C 10.484375 -4.847656 9.582031 -5.453125 7.78125 -5.453125 L 4.015625 -5.453125 L 4.015625 -1.828125 Z M 7.78125 -1.828125 "/></g></g></g><g fill="#ffd03c" fill-opacity="1"><g transform="translate(43.206789, 260.108352)"><g><path d="M 7.09375 -4.421875 L 7.09375 0 L 4.765625 0 L 4.765625 -4.390625 L -0.15625 -12.546875 L 2.328125 -12.546875 L 6 -6.4375 L 9.71875 -12.546875 L 12 -12.546875 Z M 7.09375 -4.421875 "/></g></g></g><g fill="#ffd03c" fill-opacity="1"><g transform="translate(55.408663, 260.108352)"><g/></g></g><g fill="#ffd03c" fill-opacity="1"><g transform="translate(60.712276, 260.108352)"><g><path d="M 11.09375 -1.953125 L 11.09375 0 L 1.6875 0 L 1.6875 -12.546875 L 10.84375 -12.546875 L 10.84375 -10.59375 L 4.015625 -10.59375 L 4.015625 -7.328125 L 10.078125 -7.328125 L 10.078125 -5.40625 L 4.015625 -5.40625 L 4.015625 -1.953125 Z M 11.09375 -1.953125 "/></g></g></g><g fill="#ffd03c" fill-opacity="1"><g transform="translate(73.075405, 260.108352)"><g><path d="M 13.203125 0 L 13.1875 -8.3125 L 9.0625 -1.4375 L 8.03125 -1.4375 L 3.90625 -8.203125 L 3.90625 0 L 1.6875 0 L 1.6875 -12.546875 L 3.609375 -12.546875 L 8.578125 -4.234375 L 13.484375 -12.546875 L 15.390625 -12.546875 L 15.40625 0 Z M 13.203125 0 "/></g></g></g><g fill="#ffd03c" fill-opacity="1"><g transform="translate(90.54505, 260.108352)"><g><path d="M 1.6875 -12.546875 L 4.015625 -12.546875 L 4.015625 0 L 1.6875 0 Z M 2.84375 -13.78125 C 2.46875 -13.78125 2.160156 -13.898438 1.921875 -14.140625 C 1.679688 -14.378906 1.5625 -14.679688 1.5625 -15.046875 C 1.5625 -15.421875 1.679688 -15.726562 1.921875 -15.96875 C 2.160156 -16.207031 2.46875 -16.328125 2.84375 -16.328125 C 3.207031 -16.328125 3.507812 -16.207031 3.75 -15.96875 C 3.988281 -15.726562 4.109375 -15.421875 4.109375 -15.046875 C 4.109375 -14.679688 3.988281 -14.378906 3.75 -14.140625 C 3.507812 -13.898438 3.207031 -13.78125 2.84375 -13.78125 Z M 2.84375 -13.78125 "/></g></g></g><g fill="#ffd03c" fill-opacity="1"><g transform="translate(96.619105, 260.108352)"><g><path d="M 9.890625 0 L 7.328125 -3.671875 C 7.222656 -3.660156 7.0625 -3.65625 6.84375 -3.65625 L 4.015625 -3.65625 L 4.015625 0 L 1.6875 0 L 1.6875 -12.546875 L 6.84375 -12.546875 C 7.9375 -12.546875 8.882812 -12.363281 9.6875 -12 C 10.488281 -11.644531 11.101562 -11.132812 11.53125 -10.46875 C 11.96875 -9.800781 12.1875 -9.003906 12.1875 -8.078125 C 12.1875 -7.140625 11.957031 -6.328125 11.5 -5.640625 C 11.039062 -4.960938 10.378906 -4.457031 9.515625 -4.125 L 12.40625 0 Z M 9.84375 -8.078125 C 9.84375 -8.878906 9.578125 -9.492188 9.046875 -9.921875 C 8.523438 -10.359375 7.753906 -10.578125 6.734375 -10.578125 L 4.015625 -10.578125 L 4.015625 -5.578125 L 6.734375 -5.578125 C 7.753906 -5.578125 8.523438 -5.789062 9.046875 -6.21875 C 9.578125 -6.65625 9.84375 -7.273438 9.84375 -8.078125 Z M 9.84375 -8.078125 "/></g></g></g><g fill="#ffd03c" fill-opacity="1"><g transform="translate(110.075219, 260.108352)"><g/></g></g><g fill="#ffd03c" fill-opacity="1"><g transform="translate(115.378832, 260.108352)"><g><path d="M 10.578125 -6.53125 C 11.265625 -6.300781 11.8125 -5.921875 12.21875 -5.390625 C 12.625 -4.859375 12.828125 -4.195312 12.828125 -3.40625 C 12.828125 -2.320312 12.410156 -1.484375 11.578125 -0.890625 C 10.742188 -0.296875 9.523438 0 7.921875 0 L 1.6875 0 L 1.6875 -12.546875 L 7.5625 -12.546875 C 9.039062 -12.546875 10.179688 -12.253906 10.984375 -11.671875 C 11.785156 -11.097656 12.1875 -10.300781 12.1875 -9.28125 C 12.1875 -8.664062 12.039062 -8.117188 11.75 -7.640625 C 11.46875 -7.160156 11.078125 -6.789062 10.578125 -6.53125 Z M 4.015625 -10.71875 L 4.015625 -7.265625 L 7.3125 -7.265625 C 8.125 -7.265625 8.75 -7.410156 9.1875 -7.703125 C 9.625 -7.992188 9.84375 -8.421875 9.84375 -8.984375 C 9.84375 -9.554688 9.625 -9.988281 9.1875 -10.28125 C 8.75 -10.570312 8.125 -10.71875 7.3125 -10.71875 Z M 7.78125 -1.828125 C 9.582031 -1.828125 10.484375 -2.429688 10.484375 -3.640625 C 10.484375 -4.847656 9.582031 -5.453125 7.78125 -5.453125 L 4.015625 -5.453125 L 4.015625 -1.828125 Z M 7.78125 -1.828125 "/></g></g></g><g fill="#ffd03c" fill-opacity="1"><g transform="translate(129.372468, 260.108352)"><g><path d="M 9.828125 -2.90625 L 3.546875 -2.90625 L 2.3125 0 L -0.09375 0 L 5.5625 -12.546875 L 7.84375 -12.546875 L 13.515625 0 L 11.078125 0 Z M 9.046875 -4.734375 L 6.6875 -10.21875 L 4.34375 -4.734375 Z M 9.046875 -4.734375 "/></g></g></g><g fill="#ffd03c" fill-opacity="1"><g transform="translate(143.151092, 260.108352)"><g><path d="M 11.4375 -1.96875 L 11.4375 0 L 0.734375 0 L 0.734375 -1.5625 L 8.125 -10.578125 L 0.859375 -10.578125 L 0.859375 -12.546875 L 11.203125 -12.546875 L 11.203125 -10.984375 L 3.8125 -1.96875 Z M 11.4375 -1.96875 "/></g></g></g><g fill="#ffd03c" fill-opacity="1"><g transform="translate(155.388799, 260.108352)"><g><path d="M 9.828125 -2.90625 L 3.546875 -2.90625 L 2.3125 0 L -0.09375 0 L 5.5625 -12.546875 L 7.84375 -12.546875 L 13.515625 0 L 11.078125 0 Z M 9.046875 -4.734375 L 6.6875 -10.21875 L 4.34375 -4.734375 Z M 9.046875 -4.734375 "/></g></g></g><g fill="#ffd03c" fill-opacity="1"><g transform="translate(169.167423, 260.108352)"><g><path d="M 9.828125 -2.90625 L 3.546875 -2.90625 L 2.3125 0 L -0.09375 0 L 5.5625 -12.546875 L 7.84375 -12.546875 L 13.515625 0 L 11.078125 0 Z M 9.046875 -4.734375 L 6.6875 -10.21875 L 4.34375 -4.734375 Z M 9.046875 -4.734375 "/></g></g></g><g fill="#ffd03c" fill-opacity="1"><g transform="translate(182.946056, 260.108352)"><g><path d="M 9.890625 0 L 7.328125 -3.671875 C 7.222656 -3.660156 7.0625 -3.65625 6.84375 -3.65625 L 4.015625 -3.65625 L 4.015625 0 L 1.6875 0 L 1.6875 -12.546875 L 6.84375 -12.546875 C 7.9375 -12.546875 8.882812 -12.363281 9.6875 -12 C 10.488281 -11.644531 11.101562 -11.132812 11.53125 -10.46875 C 11.96875 -9.800781 12.1875 -9.003906 12.1875 -8.078125 C 12.1875 -7.140625 11.957031 -6.328125 11.5 -5.640625 C 11.039062 -4.960938 10.378906 -4.457031 9.515625 -4.125 L 12.40625 0 Z M 9.84375 -8.078125 C 9.84375 -8.878906 9.578125 -9.492188 9.046875 -9.921875 C 8.523438 -10.359375 7.753906 -10.578125 6.734375 -10.578125 L 4.015625 -10.578125 L 4.015625 -5.578125 L 6.734375 -5.578125 C 7.753906 -5.578125 8.523438 -5.789062 9.046875 -6.21875 C 9.578125 -6.65625 9.84375 -7.273438 9.84375 -8.078125 Z M 9.84375 -8.078125 "/></g></g></g></svg>